<mxfile host="app.diagrams.net" modified="2025-01-27T12:00:00.000Z" agent="5.0" version="22.1.0" etag="draw-id" type="device">
  <diagram name="OAuth Authentication" id="oauth-authentication">
    <mxGraphModel dx="1600" dy="900" grid="1" gridSize="10" guides="1" tooltips="1" connect="1" arrows="1" fold="1" page="1" pageScale="1" pageWidth="1600" pageHeight="900" math="0" shadow="0">
      <root>
        <mxCell id="0" />
        <mxCell id="1" parent="0" />
        
        <mxCell id="title" value="Fraud Switch - OAuth 2.0 Authentication for External Gateways" style="text;html=1;strokeColor=none;fillColor=none;align=center;verticalAlign=middle;whiteSpace=wrap;rounded=0;fontSize=24;fontStyle=1" vertex="1" parent="1">
          <mxGeometry x="300" y="20" width="1000" height="40" as="geometry" />
        </mxCell>
        
        <mxCell id="subtitle" value="Client Credentials Grant Flow with Token Management" style="text;html=1;strokeColor=none;fillColor=none;align=center;verticalAlign=middle;whiteSpace=wrap;rounded=0;fontSize=14;fontColor=#0066CC;fontStyle=1" vertex="1" parent="1">
          <mxGeometry x="300" y="65" width="1000" height="25" as="geometry" />
        </mxCell>
        
        <mxCell id="legend-box" value="" style="rounded=1;whiteSpace=wrap;html=1;fillColor=#f5f5f5;strokeColor=#666666;dashed=1;" vertex="1" parent="1">
          <mxGeometry x="40" y="110" width="220" height="120" as="geometry" />
        </mxCell>
        <mxCell id="legend-title" value="Flow Legend" style="text;html=1;strokeColor=none;fillColor=none;align=left;verticalAlign=middle;whiteSpace=wrap;rounded=0;fontSize=14;fontStyle=1" vertex="1" parent="1">
          <mxGeometry x="50" y="120" width="150" height="20" as="geometry" />
        </mxCell>
        <mxCell id="legend-initial" value="Initial Token Request" style="text;html=1;strokeColor=none;fillColor=none;align=left;verticalAlign=middle;whiteSpace=wrap;rounded=0;fontSize=10;" vertex="1" parent="1">
          <mxGeometry x="90" y="150" width="140" height="20" as="geometry" />
        </mxCell>
        <mxCell id="legend-authenticated" value="Authenticated API Call" style="text;html=1;strokeColor=none;fillColor=none;align=left;verticalAlign=middle;whiteSpace=wrap;rounded=0;fontSize=10;" vertex="1" parent="1">
          <mxGeometry x="90" y="175" width="140" height="20" as="geometry" />
        </mxCell>
        <mxCell id="legend-refresh" value="Token Refresh" style="text;html=1;strokeColor=none;fillColor=none;align=left;verticalAlign=middle;whiteSpace=wrap;rounded=0;fontSize=10;" vertex="1" parent="1">
          <mxGeometry x="90" y="200" width="140" height="20" as="geometry" />
        </mxCell>
        <mxCell id="legend-initial-line" value="" style="endArrow=classic;html=1;strokeWidth=3;strokeColor=#CC0000;" edge="1" parent="1">
          <mxGeometry width="50" height="50" relative="1" as="geometry">
            <mxPoint x="50" y="160" as="sourcePoint" />
            <mxPoint x="80" y="160" as="targetPoint" />
          </mxGeometry>
        </mxCell>
        <mxCell id="legend-authenticated-line" value="" style="endArrow=classic;html=1;strokeWidth=3;strokeColor=#0066CC;" edge="1" parent="1">
          <mxGeometry width="50" height="50" relative="1" as="geometry">
            <mxPoint x="50" y="185" as="sourcePoint" />
            <mxPoint x="80" y="185" as="targetPoint" />
          </mxGeometry>
        </mxCell>
        <mxCell id="legend-refresh-line" value="" style="endArrow=classic;html=1;strokeWidth=2;strokeColor=#009900;dashed=1;" edge="1" parent="1">
          <mxGeometry width="50" height="50" relative="1" as="geometry">
            <mxPoint x="50" y="210" as="sourcePoint" />
            <mxPoint x="80" y="210" as="targetPoint" />
          </mxGeometry>
        </mxCell>

        <mxCell id="onboarding-phase-label" value="PHASE 1: GATEWAY ONBOARDING" style="text;html=1;strokeColor=none;fillColor=none;align=left;verticalAlign=middle;whiteSpace=wrap;rounded=0;fontSize=16;fontStyle=1;fontColor=#9900CC;" vertex="1" parent="1">
          <mxGeometry x="300" y="110" width="500" height="30" as="geometry" />
        </mxCell>

        <mxCell id="gateway-registration" value="Gateway Registration&#xa;(One-time setup)&#xa;&#xa;Gateway provides:&#xa;• Gateway name&#xa;• Technical contact&#xa;• IP whitelist&#xa;• Callback URLs&#xa;&#xa;Fraud Switch creates:&#xa;• client_id (UUID)&#xa;• client_secret (SHA-256)&#xa;• Scopes: fraud:evaluate" style="rounded=1;whiteSpace=wrap;html=1;fillColor=#e1d5e7;strokeColor=#9673a6;verticalAlign=top;fontSize=10;fontStyle=1;strokeWidth=2;align=left;" vertex="1" parent="1">
          <mxGeometry x="320" y="160" width="220" height="180" as="geometry" />
        </mxCell>

        <mxCell id="credentials-storage" value="Credentials Store&#xa;(AWS Secrets Manager)&#xa;&#xa;Stored securely:&#xa;{&#xa;  gateway_id: ...,&#xa;  client_id: ...,&#xa;  client_secret_hash: ...,&#xa;  created_at: ...,&#xa;  scopes: [fraud:evaluate],&#xa;  ip_whitelist: [...],&#xa;  rate_limit: 300/sec,&#xa;  status: ACTIVE&#xa;}" style="rounded=1;whiteSpace=wrap;html=1;fillColor=#fff2cc;strokeColor=#d6b656;verticalAlign=top;fontSize=9;fontStyle=1;strokeWidth=2;align=left;" vertex="1" parent="1">
          <mxGeometry x="580" y="160" width="240" height="180" as="geometry" />
        </mxCell>

        <mxCell id="registration-to-storage" value="Store credentials" style="endArrow=classic;html=1;exitX=1;exitY=0.5;exitDx=0;exitDy=0;entryX=0;entryY=0.5;entryDx=0;entryDy=0;strokeWidth=2;strokeColor=#9900CC;fontSize=9;" edge="1" parent="1" source="gateway-registration" target="credentials-storage">
          <mxGeometry x="0.1" width="50" height="50" relative="1" as="geometry">
            <mxPoint x="600" y="300" as="sourcePoint" />
            <mxPoint x="650" y="250" as="targetPoint" />
            <mxPoint as="offset" />
          </mxGeometry>
        </mxCell>

        <mxCell id="credentials-delivery" value="Secure Credential Delivery&#xa;&#xa;Delivered to gateway:&#xa;• client_id (plain text)&#xa;• client_secret (one-time view)&#xa;&#xa;Via secure channel:&#xa;• Encrypted email&#xa;• Admin portal (HTTPS)&#xa;&#xa;Gateway must store securely!" style="rounded=1;whiteSpace=wrap;html=1;fillColor=#ffe6cc;strokeColor=#d79b00;verticalAlign=top;fontSize=10;fontStyle=1;strokeWidth=2;align=left;" vertex="1" parent="1">
          <mxGeometry x="860" y="160" width="240" height="180" as="geometry" />
        </mxCell>

        <mxCell id="storage-to-delivery" value="One-time view" style="endArrow=classic;html=1;exitX=1;exitY=0.5;exitDx=0;exitDy=0;entryX=0;entryY=0.5;entryDx=0;entryDy=0;strokeWidth=2;strokeColor=#9900CC;fontSize=9;" edge="1" parent="1" source="credentials-storage" target="credentials-delivery">
          <mxGeometry x="0.1" width="50" height="50" relative="1" as="geometry">
            <mxPoint x="850" y="300" as="sourcePoint" />
            <mxPoint x="900" y="250" as="targetPoint" />
            <mxPoint as="offset" />
          </mxGeometry>
        </mxCell>

        <mxCell id="auth-flow-label" value="PHASE 2: AUTHENTICATION FLOW (OAuth 2.0 Client Credentials)" style="text;html=1;strokeColor=none;fillColor=none;align=left;verticalAlign=middle;whiteSpace=wrap;rounded=0;fontSize=16;fontStyle=1;fontColor=#CC0000;" vertex="1" parent="1">
          <mxGeometry x="300" y="380" width="800" height="30" as="geometry" />
        </mxCell>

        <mxCell id="gateway-client" value="Payment Gateway&#xa;(OAuth Client)&#xa;&#xa;Stores securely:&#xa;• client_id&#xa;• client_secret&#xa;&#xa;Maintains:&#xa;• Token cache&#xa;• Refresh logic" style="rounded=1;whiteSpace=wrap;html=1;fillColor=#dae8fc;strokeColor=#6c8ebf;verticalAlign=top;fontSize=10;fontStyle=1;strokeWidth=3;" vertex="1" parent="1">
          <mxGeometry x="320" y="430" width="180" height="140" as="geometry" />
        </mxCell>

        <mxCell id="auth-server" value="Fraud Switch&#xa;Authorization Server&#xa;&#xa;Endpoints:&#xa;• POST /oauth/token&#xa;&#xa;Validates:&#xa;• client_id + client_secret&#xa;• IP whitelist&#xa;• Rate limits&#xa;&#xa;Issues JWT tokens" style="rounded=1;whiteSpace=wrap;html=1;fillColor=#f8cecc;strokeColor=#b85450;verticalAlign=top;fontSize=10;fontStyle=1;strokeWidth=3;align=left;" vertex="1" parent="1">
          <mxGeometry x="580" y="430" width="220" height="160" as="geometry" />
        </mxCell>

        <mxCell id="token-request" value="1. Token Request&#xa;&#xa;POST /oauth/token&#xa;Content-Type: application/x-www-form-urlencoded&#xa;&#xa;Body:&#xa;grant_type=client_credentials&#xa;client_id={gateway_client_id}&#xa;client_secret={gateway_client_secret}&#xa;scope=fraud:evaluate" style="endArrow=classic;html=1;exitX=1;exitY=0.3;exitDx=0;exitDy=0;entryX=0;entryY=0.3;entryDx=0;entryDy=0;strokeWidth=3;strokeColor=#CC0000;fontSize=8;align=left;" edge="1" parent="1" source="gateway-client" target="auth-server">
          <mxGeometry x="0.1" width="50" height="50" relative="1" as="geometry">
            <mxPoint x="550" y="500" as="sourcePoint" />
            <mxPoint x="600" y="450" as="targetPoint" />
            <mxPoint as="offset" />
          </mxGeometry>
        </mxCell>

        <mxCell id="token-response" value="2. Token Response&#xa;&#xa;HTTP 200 OK&#xa;Content-Type: application/json&#xa;&#xa;{&#xa;  access_token: eyJhbG...,&#xa;  token_type: Bearer,&#xa;  expires_in: 3600,&#xa;  scope: fraud:evaluate&#xa;}" style="endArrow=classic;html=1;exitX=0;exitY=0.7;exitDx=0;exitDy=0;entryX=1;entryY=0.7;entryDx=0;entryDy=0;strokeWidth=3;strokeColor=#CC0000;fontSize=8;align=left;" edge="1" parent="1" source="auth-server" target="gateway-client">
          <mxGeometry x="-0.1" width="50" height="50" relative="1" as="geometry">
            <mxPoint x="550" y="550" as="sourcePoint" />
            <mxPoint x="600" y="500" as="targetPoint" />
            <mxPoint as="offset" />
          </mxGeometry>
        </mxCell>

        <mxCell id="jwt-structure" value="JWT Token Structure&#xa;&#xa;Header:&#xa;{&#xa;  alg: RS256,&#xa;  typ: JWT&#xa;}&#xa;&#xa;Payload:&#xa;{&#xa;  iss: fraud-switch,&#xa;  sub: {gateway_id},&#xa;  aud: fraud-switch-api,&#xa;  exp: {timestamp + 3600},&#xa;  iat: {timestamp},&#xa;  scope: fraud:evaluate,&#xa;  client_id: {client_id}&#xa;}&#xa;&#xa;Signature: RSA-SHA256" style="rounded=1;whiteSpace=wrap;html=1;fillColor=#e1d5e7;strokeColor=#9673a6;verticalAlign=top;fontSize=9;fontStyle=1;strokeWidth=2;align=left;" vertex="1" parent="1">
          <mxGeometry x="860" y="430" width="240" height="240" as="geometry" />
        </mxCell>

        <mxCell id="api-call-label" value="PHASE 3: AUTHENTICATED API CALLS" style="text;html=1;strokeColor=none;fillColor=none;align=left;verticalAlign=middle;whiteSpace=wrap;rounded=0;fontSize=16;fontStyle=1;fontColor=#0066CC;" vertex="1" parent="1">
          <mxGeometry x="300" y="620" width="500" height="30" as="geometry" />
        </mxCell>

        <mxCell id="ets-api" value="ETS API&#xa;(Resource Server)&#xa;&#xa;Endpoint:&#xa;• POST /fraudswitch/v1/evaluate&#xa;&#xa;Requires:&#xa;• Authorization: Bearer {token}&#xa;&#xa;Validates JWT:&#xa;• Signature verification&#xa;• Expiration check&#xa;• Scope validation" style="rounded=1;whiteSpace=wrap;html=1;fillColor=#d5e8d4;strokeColor=#82b366;verticalAlign=top;fontSize=10;fontStyle=1;strokeWidth=3;align=left;" vertex="1" parent="1">
          <mxGeometry x="580" y="670" width="220" height="170" as="geometry" />
        </mxCell>

        <mxCell id="authenticated-request" value="3. Authenticated Request&#xa;&#xa;POST /fraudswitch/v1/evaluate&#xa;Authorization: Bearer eyJhbG...&#xa;Content-Type: application/json&#xa;&#xa;Body: {transaction payload}" style="endArrow=classic;html=1;exitX=1;exitY=0.7;exitDx=0;exitDy=0;entryX=0;entryY=0.3;entryDx=0;entryDy=0;strokeWidth=3;strokeColor=#0066CC;fontSize=9;align=left;" edge="1" parent="1" source="gateway-client" target="ets-api">
          <mxGeometry x="0.1" width="50" height="50" relative="1" as="geometry">
            <mxPoint x="550" y="720" as="sourcePoint" />
            <mxPoint x="600" y="670" as="targetPoint" />
            <mxPoint as="offset" />
          </mxGeometry>
        </mxCell>

        <mxCell id="api-response" value="4. API Response&#xa;&#xa;HTTP 200 OK&#xa;Content-Type: application/json&#xa;&#xa;{fraud decision payload}" style="endArrow=classic;html=1;exitX=0;exitY=0.7;exitDx=0;exitDy=0;entryX=1;entryY=0.9;entryDx=0;entryDy=0;strokeWidth=3;strokeColor=#0066CC;fontSize=9;align=left;" edge="1" parent="1" source="ets-api" target="gateway-client">
          <mxGeometry x="-0.1" width="50" height="50" relative="1" as="geometry">
            <mxPoint x="550" y="780" as="sourcePoint" />
            <mxPoint x="600" y="730" as="targetPoint" />
            <mxPoint as="offset" />
          </mxGeometry>
        </mxCell>

        <mxCell id="jwt-validation" value="JWT Validation Process&#xa;&#xa;1. Extract token from header&#xa;2. Verify RS256 signature&#xa;   (using public key)&#xa;3. Check expiration (exp)&#xa;4. Validate issuer (iss)&#xa;5. Validate audience (aud)&#xa;6. Check scope: fraud:evaluate&#xa;7. Rate limit check (300/sec)&#xa;8. IP whitelist validation&#xa;&#xa;If valid: Process request&#xa;If invalid: HTTP 401 Unauthorized" style="rounded=1;whiteSpace=wrap;html=1;fillColor=#fff2cc;strokeColor=#d6b656;verticalAlign=top;fontSize=9;fontStyle=1;strokeWidth=2;align=left;" vertex="1" parent="1">
          <mxGeometry x="860" y="700" width="240" height="200" as="geometry" />
        </mxCell>

        <mxCell id="refresh-label" value="PHASE 4: TOKEN REFRESH CYCLE" style="text;html=1;strokeColor=none;fillColor=none;align=left;verticalAlign=middle;whiteSpace=wrap;rounded=0;fontSize=16;fontStyle=1;fontColor=#009900;" vertex="1" parent="1">
          <mxGeometry x="40" y="260" width="400" height="30" as="geometry" />
        </mxCell>

        <mxCell id="refresh-timeline" value="" style="rounded=0;whiteSpace=wrap;html=1;fillColor=none;strokeColor=#009900;strokeWidth=3;" vertex="1" parent="1">
          <mxGeometry x="40" y="310" width="220" height="340" as="geometry" />
        </mxCell>

        <mxCell id="refresh-timeline-label" value="Token Lifecycle (60 minutes)" style="text;html=1;strokeColor=none;fillColor=none;align=center;verticalAlign=middle;whiteSpace=wrap;rounded=0;fontSize=11;fontStyle=1" vertex="1" parent="1">
          <mxGeometry x="60" y="320" width="180" height="20" as="geometry" />
        </mxCell>

        <mxCell id="t0" value="T+0: Token Issued&#xa;&#xa;expires_in: 3600s&#xa;Gateway caches token" style="rounded=1;whiteSpace=wrap;html=1;fillColor=#d5e8d4;strokeColor=#82b366;verticalAlign=top;fontSize=9;fontStyle=1;strokeWidth=2;align=left;" vertex="1" parent="1">
          <mxGeometry x="60" y="350" width="180" height="60" as="geometry" />
        </mxCell>

        <mxCell id="t45" value="T+45min: Proactive Refresh&#xa;&#xa;Gateway detects token&#xa;expires in 15 minutes&#xa;&#xa;Request new token&#xa;(with current token still valid)" style="rounded=1;whiteSpace=wrap;html=1;fillColor=#fff2cc;strokeColor=#d6b656;verticalAlign=top;fontSize=9;fontStyle=1;strokeWidth=2;align=left;" vertex="1" parent="1">
          <mxGeometry x="60" y="430" width="180" height="90" as="geometry" />
        </mxCell>

        <mxCell id="t46" value="T+46min: New Token Received&#xa;&#xa;Replace cached token&#xa;Old token still valid for 14min&#xa;&#xa;Zero downtime transition" style="rounded=1;whiteSpace=wrap;html=1;fillColor=#d5e8d4;strokeColor=#82b366;verticalAlign=top;fontSize=9;fontStyle=1;strokeWidth=2;align=left;" vertex="1" parent="1">
          <mxGeometry x="60" y="540" width="180" height="80" as="geometry" />
        </mxCell>

        <mxCell id="refresh-best-practice" value="Best Practice: Refresh at 75%&#xa;of token lifetime to avoid&#xa;expiration edge cases" style="text;html=1;strokeColor=#d79b00;fillColor=#ffe6cc;align=left;verticalAlign=middle;whiteSpace=wrap;rounded=1;fontSize=9;fontStyle=1" vertex="1" parent="1">
          <mxGeometry x="60" y="635" width="180" height="50" as="geometry" />
        </mxCell>

        <mxCell id="security-label" value="SECURITY CONTROLS" style="text;html=1;strokeColor=none;fillColor=none;align=left;verticalAlign=middle;whiteSpace=wrap;rounded=0;fontSize=16;fontStyle=1;fontColor=#CC0000;" vertex="1" parent="1">
          <mxGeometry x="1140" y="110" width="300" height="30" as="geometry" />
        </mxCell>

        <mxCell id="security-controls" value="Multi-Layer Security&#xa;&#xa;1. IP Whitelist&#xa;   • Validate source IP&#xa;   • Block unauthorized networks&#xa;&#xa;2. Rate Limiting&#xa;   • 300 requests/sec per gateway&#xa;   • Token bucket algorithm&#xa;   • HTTP 429 on exceed&#xa;&#xa;3. Token Expiration&#xa;   • Short-lived: 60 minutes&#xa;   • Force periodic re-auth&#xa;&#xa;4. Scope Restriction&#xa;   • fraud:evaluate only&#xa;   • Principle of least privilege&#xa;&#xa;5. Secret Rotation&#xa;   • client_secret rotated annually&#xa;   • Zero-downtime rotation&#xa;&#xa;6. Audit Logging&#xa;   • All auth attempts logged&#xa;   • Token usage tracked&#xa;   • Anomaly detection" style="rounded=1;whiteSpace=wrap;html=1;fillColor=#f8cecc;strokeColor=#b85450;verticalAlign=top;fontSize=9;fontStyle=1;strokeWidth=2;align=left;" vertex="1" parent="1">
          <mxGeometry x="1140" y="160" width="420" height="290" as="geometry" />
        </mxCell>

        <mxCell id="error-handling-label" value="ERROR HANDLING" style="text;html=1;strokeColor=none;fillColor=none;align=left;verticalAlign=middle;whiteSpace=wrap;rounded=0;fontSize=14;fontStyle=1;fontColor=#CC6600;" vertex="1" parent="1">
          <mxGeometry x="1140" y="470" width="300" height="30" as="geometry" />
        </mxCell>

        <mxCell id="error-scenarios" value="Common Error Scenarios&#xa;&#xa;401 Unauthorized - Invalid client_id/secret&#xa;{&#xa;  error: invalid_client,&#xa;  error_description: Invalid credentials&#xa;}&#xa;&#xa;401 Unauthorized - Token expired&#xa;{&#xa;  error: invalid_token,&#xa;  error_description: Token has expired&#xa;}&#xa;&#xa;403 Forbidden - Insufficient scope&#xa;{&#xa;  error: insufficient_scope,&#xa;  error_description: Requires fraud:evaluate&#xa;}&#xa;&#xa;429 Too Many Requests - Rate limit exceeded&#xa;{&#xa;  error: rate_limit_exceeded,&#xa;  retry_after: 60&#xa;}&#xa;&#xa;Gateway Response:&#xa;• Retry with exponential backoff&#xa;• Request new token if expired&#xa;• Alert on persistent failures" style="rounded=1;whiteSpace=wrap;html=1;fillColor=#ffe6cc;strokeColor=#d79b00;verticalAlign=top;fontSize=9;fontStyle=1;strokeWidth=2;align=left;" vertex="1" parent="1">
          <mxGeometry x="1140" y="510" width="420" height="330" as="geometry" />
        </mxCell>

        <mxCell id="metrics-box" value="" style="rounded=1;whiteSpace=wrap;html=1;fillColor=#f5f5f5;strokeColor=#666666;dashed=1;" vertex="1" parent="1">
          <mxGeometry x="40" y="700" width="220" height="200" as="geometry" />
        </mxCell>
        <mxCell id="metrics-title" value="Key Metrics" style="text;html=1;strokeColor=none;fillColor=none;align=left;verticalAlign=middle;whiteSpace=wrap;rounded=0;fontSize=12;fontStyle=1" vertex="1" parent="1">
          <mxGeometry x="50" y="710" width="150" height="20" as="geometry" />
        </mxCell>
        <mxCell id="metric-1" value="Token TTL: 3600 seconds" style="text;html=1;strokeColor=none;fillColor=none;align=left;verticalAlign=middle;whiteSpace=wrap;rounded=0;fontSize=10;" vertex="1" parent="1">
          <mxGeometry x="55" y="740" width="190" height="20" as="geometry" />
        </mxCell>
        <mxCell id="metric-2" value="Refresh trigger: 2700s (75%)" style="text;html=1;strokeColor=none;fillColor=none;align=left;verticalAlign=middle;whiteSpace=wrap;rounded=0;fontSize=10;" vertex="1" parent="1">
          <mxGeometry x="55" y="765" width="190" height="20" as="geometry" />
        </mxCell>
        <mxCell id="metric-3" value="Rate limit: 300 req/sec" style="text;html=1;strokeColor=none;fillColor=none;align=left;verticalAlign=middle;whiteSpace=wrap;rounded=0;fontSize=10;" vertex="1" parent="1">
          <mxGeometry x="55" y="790" width="190" height="20" as="geometry" />
        </mxCell>
        <mxCell id="metric-4" value="JWT algorithm: RS256" style="text;html=1;strokeColor=none;fillColor=none;align=left;verticalAlign=middle;whiteSpace=wrap;rounded=0;fontSize=10;" vertex="1" parent="1">
          <mxGeometry x="55" y="815" width="190" height="20" as="geometry" />
        </mxCell>
        <mxCell id="metric-5" value="Token size: ~500 bytes" style="text;html=1;strokeColor=none;fillColor=none;align=left;verticalAlign=middle;whiteSpace=wrap;rounded=0;fontSize=10;" vertex="1" parent="1">
          <mxGeometry x="55" y="840" width="190" height="20" as="geometry" />
        </mxCell>
        <mxCell id="metric-6" value="Auth latency: &lt;50ms p99" style="text;html=1;strokeColor=none;fillColor=none;align=left;verticalAlign=middle;whiteSpace=wrap;rounded=0;fontSize=10;" vertex="1" parent="1">
          <mxGeometry x="55" y="865" width="190" height="20" as="geometry" />
        </mxCell>

      </root>
    </mxGraphModel>
  </diagram>
</mxfile>
